<svg xmlns="http://www.w3.org/2000/svg" xmlns:xlink="http://www.w3.org/1999/xlink" width="89" height="89" viewBox="0 0 89 89"><defs><path id="3enva" d="M183.793 982.546c23.75 0 43 19.252 43 43s-19.25 43-43 43c-23.748 0-43-19.252-43-43s19.252-43 43-43z"/><path id="3envb" d="M194.932 1035.845c-1.963 0-3.71-.47-5.343-1.432-.146-.108-.299-.217-.455-.33a16.277 16.277 0 0 1-.738-.545l1.74-2.174a3.49 3.49 0 0 0 1.081.727c1.298.757 2.45 1.097 3.715 1.097 2.01 0 3.955-.837 5.474-2.358 2.684-2.926 2.684-7.264.048-10.14-1.278-1.492-3.356-2.407-5.522-2.407-1.308 0-2.494.362-3.843 1.172-.762.506-1.228.972-1.818 1.562l-.07.07-2.705 3.478-6.217 7.722c-.765.919-1.56 1.577-2.399 2.248-1.703.676-3.52 1.31-5.419 1.31-2.875 0-5.665-1.271-7.466-3.4-3.476-3.807-3.466-9.838-.018-13.777 1.997-2.163 4.803-3.421 7.672-3.421 1.963 0 3.711.47 5.343 1.433.146.108.298.217.453.327.24.17.484.345.72.529l-1.864 2.236c-.322-.314-.699-.608-1.19-.796-1.228-.602-2.39-.882-3.65-.882-2.01 0-3.955.837-5.474 2.357-2.684 2.927-2.684 7.264-.048 10.14 1.278 1.493 3.356 2.408 5.522 2.408 1.308 0 2.494-.362 3.844-1.173.761-.505 1.228-.971 1.817-1.561l.071-.07 2.704-3.478 4.52-5.648 1.69-2.064c.803-.966 1.631-1.638 2.505-2.338 1.626-.955 3.367-1.42 5.32-1.42 2.87 0 5.677 1.258 7.702 3.452 3.428 3.755 3.418 9.787-.029 13.727-1.996 2.16-4.803 3.419-7.673 3.419z"/></defs><g><g transform="translate(-139 -981)"><use fill-opacity="0" stroke-miterlimit="50" stroke-width="2.5" xlink:href="#3enva"/></g><g transform="translate(-139 -981)"><use stroke-width="0.5" xlink:href="#3envb"/></g></g></svg>
