<svg xmlns="http://www.w3.org/2000/svg" xmlns:xlink="http://www.w3.org/1999/xlink" width="89" height="89" viewBox="0 0 89 89"><defs><path id="extna" d="M183.793 738.784c23.75 0 43 19.252 43 43 0 23.749-19.25 43-43 43-23.748 0-43-19.251-43-43 0-23.748 19.252-43 43-43z"/><path id="extnb" d="M186.58 797.838c-4.18 0-8.304-1.728-11.316-4.74-3.012-3.011-4.739-7.135-4.739-11.315 0-4.301 1.638-8.215 4.74-11.314 3.1-3.101 7.012-4.74 11.314-4.74 3.915 0 7.523 1.365 10.483 3.957l-2.387 2.387c-2.245-1.868-5.092-2.89-8.096-2.89-3.35 0-6.607 1.337-8.935 3.666-2.329 2.328-3.665 5.585-3.665 8.934 0 3.35 1.336 6.608 3.665 8.936 2.328 2.329 5.585 3.665 8.935 3.665 3.004 0 5.851-1.022 8.096-2.89l2.386 2.388c-2.933 2.557-6.626 3.956-10.482 3.956z"/></defs><g><g transform="translate(-139 -737)"><use fill-opacity="0" stroke-miterlimit="50" stroke-width="2.5" xlink:href="#extna"/></g><g transform="translate(-139 -737)"><use stroke-width="0.5" xlink:href="#extnb"/></g></g></svg>
