<svg xmlns="http://www.w3.org/2000/svg" xmlns:xlink="http://www.w3.org/1999/xlink" width="90" height="90" viewBox="0 0 90 90">
	<defs>
		<path id="wpbma" d="M194.645 273.636h-21.703c-2.488 0-4.508 2.045-4.508 4.532v13.29c0 2.487 2.02 4.55 4.508 4.55h4.19l5.793 6.41c.225.241.535.375.868.375.334 0 .643-.125.868-.367l5.793-6.419h4.191c2.487 0 4.507-2.062 4.507-4.55v-13.305c0-2.47-2.02-4.516-4.507-4.516zm2.17 17.813c0 1.193-.977 2.212-2.17 2.212h-4.708c-.334 0-.643.117-.868.367l-5.276 5.843-5.275-5.835a1.171 1.171 0 0 0-.869-.367h-4.707c-1.194 0-2.17-1.018-2.17-2.212v-13.305c0-1.194.976-2.196 2.17-2.196h21.703c1.193 0 2.17 1.002 2.17 2.196z"/>
		<path id="wpbmb" d="M183.793 244.058c23.75 0 43 19.252 43 43s-19.25 43-43 43c-23.748 0-43-19.252-43-43s19.252-43 43-43z"/>
	</defs>
	<g>
		<g transform="translate(-139 -242)">
			<use xlink:href="#wpbma" stroke-width="0.5" />
		</g>
		<g transform="translate(-139 -242)">
			<use fill-opacity="0" stroke-miterlimit="50" stroke-width="2.5" xlink:href="#wpbmb"/>
		</g>
	</g>
</svg>
